<svg xmlns="http://www.w3.org/2000/svg" viewBox="0 0 96 96" role="img" aria-label="Груповий чат">
  <defs><linearGradient id="g" x1="0" y1="0" x2="1" y2="1"><stop stop-color="#dbeafe"/><stop offset="1" stop-color="#bfdbfe"/></linearGradient></defs>
  <circle cx="48" cy="48" r="48" fill="url(#g)"/>
  <circle cx="48" cy="34" r="15" fill="#1769c2"/>
  <circle cx="24" cy="43" r="11" fill="#5598dc"/>
  <circle cx="72" cy="43" r="11" fill="#5598dc"/>
  <path d="M20 76c1-17 12-27 28-27s27 10 28 27" fill="#1769c2"/>
  <path d="M4 76c1-13 8-22 20-22 5 0 9 2 13 5-5 4-8 10-10 17" fill="#5598dc"/>
  <path d="M92 76c-1-13-8-22-20-22-5 0-9 2-13 5 5 4 8 10 10 17" fill="#5598dc"/>
</svg>
